<svg id="visual" viewBox="0 0 960 540" width="960" height="540" xmlns="http://www.w3.org/2000/svg" xmlns:xlink="http://www.w3.org/1999/xlink" version="1.1"><rect x="0" y="0" width="960" height="540" fill="#020617"></rect><g transform="translate(449.5984642678244 292.33015355898283)"><path d="M98.9 -127.8C148.2 -100.3 222 -98.2 248.3 -68.6C274.5 -38.9 253.3 18.2 226.8 65.7C200.4 113.1 168.7 150.8 130 167.4C91.3 184 45.7 179.5 -7.9 190.4C-61.5 201.3 -123 227.7 -149.7 207.2C-176.3 186.7 -168 119.3 -171.5 65.8C-175 12.4 -190.2 -27.2 -196.6 -81.4C-203.1 -135.5 -200.7 -204.3 -166.5 -236.7C-132.3 -269 -66.1 -265 -20.7 -236.6C24.8 -208.1 49.6 -155.3 98.9 -127.8" fill="#FFFFFF"></path></g></svg>