<?xml version="1.0" encoding="UTF-8" standalone="no"?>
<!-- Created with Inkscape (http://www.inkscape.org/) -->

<svg
   version="1.1"
   id="svg2"
   width="930.66669"
   height="764"
   viewBox="0 0 930.66669 764"
   sodipodi:docname="pink-floyd.eps"
   xmlns:inkscape="http://www.inkscape.org/namespaces/inkscape"
   xmlns:sodipodi="http://sodipodi.sourceforge.net/DTD/sodipodi-0.dtd"
   xmlns="http://www.w3.org/2000/svg"
   xmlns:svg="http://www.w3.org/2000/svg">
  <defs
     id="defs6" />
  <sodipodi:namedview
     id="namedview4"
     pagecolor="#ffffff"
     bordercolor="#000000"
     borderopacity="0.25"
     inkscape:showpageshadow="2"
     inkscape:pageopacity="0.0"
     inkscape:pagecheckerboard="0"
     inkscape:deskcolor="#d1d1d1" />
  <g
     id="g8"
     inkscape:groupmode="layer"
     inkscape:label="ink_ext_XXXXXX"
     transform="matrix(1.3333333,0,0,-1.3333333,0,764)">
    <g
       id="g10"
       transform="scale(0.1)">
      <path
         d="m 1971.52,3194.11 c 0.03,-191.39 -98.97,-388.29 -263.88,-497.48 -126.16,-83.54 -225.78,-144.73 -414.61,-144.73 -28.01,0 -67.93,-2.35 -119.94,4 -41.13,5.01 162.25,-305.04 162.25,-354.12 0,-18.23 -252.89,42.85 -492.981,8.31 -147.91,-21.28 -233.484,-38.64 -300.246,-48.37 -115.41,-25.59 -154.859,-20.9 -237.422,-55.77 -31.898,-13.47 -68.816,-29.99 -122.355,-49.36 -41.277,21.9 34.32,118.02 69.551,259.37 138.871,557.19 -48.629,923.16 -120.133,1062.76 389.676,-88.12 527.191,443.85 541.961,473.98 156.969,320.23 444.825,68.84 655.075,58.94 106.82,-5.03 308.22,-33.6 442.22,-226.19 99.92,-123.13 200.48,-304.24 200.51,-491.34 z m -528.41,74.16 c -46.46,160.78 -110.63,196.43 -286.76,199.34 -114.57,1.89 -180.67,8.55 -179.311,-4.02 l 46.921,-433.61 c 0.58,-5.35 230.12,8.5 280.96,13.36 120.36,11.49 174.61,98.9 138.19,224.93"
         style="fill:#ec008c;fill-opacity:1;fill-rule:nonzero;stroke:none"
         id="path12" />
      <path
         d="m 2898.69,1805.8 c 68.94,226.07 79.98,456.41 62.7,665.34 -13.54,163.72 -36.82,313.68 -64.19,448.32 -68.06,334.86 -154.36,739.4 -276.31,1034.27 477.31,121.32 584.14,211.46 590.01,196.76 38.91,-97.34 83.93,-246.63 139.76,-382.38 107.24,-260.72 297.72,-638.95 445.64,-878.18 51.58,-83.43 172.1,-377.51 150.95,-227.79 -63.25,447.74 -262.02,1051.38 -515.88,1377.43 -46.67,59.95 -138.96,116.12 -127.63,131.24 28.4,37.92 92.33,-38.62 112.33,-52.81 118.27,-83.93 430.45,-21.12 703.16,-58.98 124.12,-17.23 259.28,-67.81 419.43,-155.59 -196.98,-409.53 -301.48,-1204.98 -290.34,-1733.22 3.41,-161.82 37.44,-537.46 37.44,-537.46 -154.41,-23.62 -329.6,-69.5 -341.43,-37.96 -94.84,253.04 -335.38,888.63 -418.51,1051.24 -66.8,130.65 -194.86,397.37 -245.37,391.09 -37.49,-4.66 33.53,-211.91 42.65,-261.26 56.38,-305.27 244.44,-955.99 406.26,-1155.76 7.61,-9.4 -676.71,83.86 -830.67,185.7"
         style="fill:#ec008c;fill-opacity:1;fill-rule:evenodd;stroke:none"
         id="path14" />
      <path
         d="m 1567.05,2170.98 c 937.64,-185.76 1022.31,-306 1248.31,-319.54 23.75,141.35 75.25,553.56 50.84,736.83 -34.63,260.08 -49.88,501.43 -153.69,742.48 -234.51,34.67 -461.73,50.98 -696.14,72.1 103.38,-396.08 9.79,-787.01 -449.32,-1231.87"
         style="fill:#ec008c;fill-opacity:1;fill-rule:evenodd;stroke:none"
         id="path16" />
      <path
         d="m 2540.69,3941.82 152.99,-497.61 -686.55,20.61 c -36.41,59.67 -77.18,126.84 -124.53,196.11 -43.07,88.16 -126.42,115.12 -176.5,204.89 333.95,-31.95 676.65,49.22 834.59,76"
         style="fill:#ec008c;fill-opacity:1;fill-rule:evenodd;stroke:none"
         id="path18" />
      <path
         d="m 4620.86,3808.89 c 280.6,-175.08 421.56,-151.28 663.88,-113.87 -283.94,-298.27 -372.49,-444.46 -347.74,-480.77 106.53,-10.93 1533.4,1078.16 867.47,1810.64 -134.61,121.35 -224.5,67 -256.49,33.3 -62.92,-66.3 48.52,-150.83 109.1,-36.68 153.49,-83.83 158.08,-653.96 -384.46,-507.37 -613.58,310.25 -141.68,1179.94 316.86,1207.48 856.23,83.18 1625,-1403.17 -330.03,-2564.31 205.5,-62.18 399.28,-204.39 569.88,-504.76 108.25,-177.46 204.21,-290.17 290.01,-349.25 -358.1,-39.1 -680.57,-146.34 -978.66,-300.2 150.16,447.6 0.32,768.4 -285.88,869.54 -53.64,-261.93 18.23,-595.25 202.33,-917.27 -263.53,-175.82 -497.75,-286.98 -689.18,-303.64 -79.31,870.63 -5.56,1599.47 252.91,2157.16"
         style="fill:#ec008c;fill-opacity:1;fill-rule:evenodd;stroke:none"
         id="path20" />
      <path
         d="M 150.723,1961.7 C -66.2773,1101.77 -25.7539,507.664 201.359,5.94922 643.785,96.3672 1050.11,166.633 1282.48,139.813 c -82.62,74.812 -105.02,49.5 -213.34,204.058 -437.234,636.582 -81.722,588.969 440.96,105.914 -47.9,281.973 -70.64,995.785 -151.74,974.205 -137.03,-199.92 -633.176,-211.49 -537.434,82.24 175.734,482.22 797.014,97 1011.624,-594.644 133.35,288.014 175,664.664 165.23,1091.054 -599.15,255.49 -1694.1,137.59 -1847.057,-40.94"
         style="fill:#ec008c;fill-opacity:1;fill-rule:evenodd;stroke:none"
         id="path22" />
      <path
         d="m 2079.14,1974.35 c 218.38,-73.29 751.34,-294.29 1202.65,-386.97 C 2575.55,1514.89 2303,694.176 2547.02,551 c 21.24,-1.398 43.45,-0.91 69.55,6.328 47.23,196.02 302.63,665.752 531.11,695.862 -269.41,-382.956 -172.77,-881.874 164.39,-1088.077 18.99,-11.613 30.22,4.442 31.61,-25.3 -359.39,34.878 -735.82,35.015 -1063.63,50.425 -375.54,-29.281 -456.3,-10.988 -687.76,-12.468 306.72,492.652 478.32,1084.66 486.85,1796.58"
         style="fill:#ec008c;fill-opacity:1;fill-rule:evenodd;stroke:none"
         id="path24" />
      <path
         d="M 3265.61,333.195 C 3459.87,138.461 3456.42,94.2617 4241.5,32.2695 c 302.46,64.6133 447.57,302.9765 447.29,535.7965 -0.49,407.118 -294.02,638.444 -560.2,809.974 -122.88,79.17 -345.66,143.11 -473.88,138.89 -572.32,-18.84 -697.5,-874.582 -389.1,-1183.735 z m 653.02,686.465 c 56.87,-69.43 46.48,-147.476 -37.17,-244.965 -83.64,-97.488 -296.88,-166.929 -385.66,-67.043 -88.79,99.895 -56.22,208.352 58.3,302.548 114.53,94.19 307.67,78.89 364.53,9.46"
         style="fill:#ec008c;fill-opacity:1;fill-rule:evenodd;stroke:none"
         id="path26" />
      <path
         d="m 3910.18,1505.37 c 8.21,15.13 247.64,2.38 561.11,81.84 154.85,39.24 313.45,102.45 405.64,172.81 -83.76,-556.02 -43.86,-715.93 129.28,-705.29 8.77,0.54 297.04,161.61 -62.89,748.82 525.03,277.48 820.77,362.45 1043.24,385.88 -123.58,-227.21 -708.04,-1066.26 -632.27,-1594.145 17.5,-121.867 139.34,-309.738 233.94,-373.234 4.22,-15.813 8.43,-31.629 12.65,-47.446 C 5223.37,0.0546875 4898.38,0.640625 4418.54,0.640625 c -6.63,0 -5.01,12.312475 -7.51,18.523475 C 5137.8,296.809 4667.47,1317.05 3910.18,1505.37"
         style="fill:#ec008c;fill-opacity:1;fill-rule:evenodd;stroke:none"
         id="path28" />
      <path
         d="m 6071.2,2199.63 c 252.29,53.69 525.6,46.83 816.34,-10.2 310.84,-665.8 -307.52,-1537.149 -842.83,-1796.172 -283.2,-137.039 -405.67,-256.945 -425.8,-180.418 -64.24,350.551 -225.25,718.859 335.37,1698.11 49.29,86.1 74.85,188.66 116.92,288.68 z M 6359.6,1816.2 6087.72,835.672 C 6198.98,952.379 6919.8,1725.6 6359.6,1816.2"
         style="fill:#ec008c;fill-opacity:1;fill-rule:evenodd;stroke:none"
         id="path30" />
    </g>
  </g>
</svg>
