<svg xmlns="http://www.w3.org/2000/svg" viewBox="0 0 1440 320">
  <path fill="#020617" fill-opacity="1" d="M0,160L17.1,165.3C34.3,171,69,181,103,202.7C137.1,224,171,256,206,229.3C240,203,274,117,309,74.7C342.9,32,377,32,411,64C445.7,96,480,160,514,181.3C548.6,203,583,181,617,181.3C651.4,181,686,203,720,213.3C754.3,224,789,224,823,234.7C857.1,245,891,267,926,256C960,245,994,203,1029,176C1062.9,149,1097,139,1131,112C1165.7,85,1200,43,1234,69.3C1268.6,96,1303,192,1337,240C1371.4,288,1406,288,1423,288L1440,288L1440,0L1422.9,0C1405.7,0,1371,0,1337,0C1302.9,0,1269,0,1234,0C1200,0,1166,0,1131,0C1097.1,0,1063,0,1029,0C994.3,0,960,0,926,0C891.4,0,857,0,823,0C788.6,0,754,0,720,0C685.7,0,651,0,617,0C582.9,0,549,0,514,0C480,0,446,0,411,0C377.1,0,343,0,309,0C274.3,0,240,0,206,0C171.4,0,137,0,103,0C68.6,0,34,0,17,0L0,0Z"></path>
</svg>